<?xml version="1.0" encoding="UTF-8"?>
<svg xmlns="http://www.w3.org/2000/svg" viewBox="0 0 800 1200" width="800" height="1200">
  <!-- Background Gradient -->
  <defs>
    <linearGradient id="bgGradient" x1="0%" y1="0%" x2="100%" y2="100%">
      <stop offset="0%" stop-color="#3a86ff" />
      <stop offset="100%" stop-color="#1a202c" />
    </linearGradient>
    <radialGradient id="glowGradient" cx="50%" cy="30%" r="70%" fx="50%" fy="30%">
      <stop offset="0%" stop-color="#ffffff" stop-opacity="0.1" />
      <stop offset="100%" stop-color="#ffffff" stop-opacity="0" />
    </radialGradient>
  </defs>
  
  <!-- Background -->
  <rect width="800" height="1200" fill="url(#bgGradient)" />
  <ellipse cx="400" cy="300" rx="500" ry="300" fill="url(#glowGradient)" />
  
  <!-- Medical Cross Shape -->
  <g transform="translate(400, 400) scale(1.5)">
    <rect x="-15" y="-60" width="30" height="120" rx="5" fill="#ffffff" opacity="0.8" />
    <rect x="-60" y="-15" width="120" height="30" rx="5" fill="#ffffff" opacity="0.8" />
  </g>
  
  <!-- X-ray-like Elements -->
  <g opacity="0.7">
    <!-- Spine-like Structure -->
    <g transform="translate(400, 700)">
      <rect x="-5" y="-200" width="10" height="400" rx="2" fill="#ffffff" opacity="0.3" />
      
      <!-- Vertebrae-like Shapes -->
      <g>
        <rect x="-30" y="-180" width="60" height="20" rx="5" fill="#ffffff" opacity="0.3" />
        <rect x="-30" y="-140" width="60" height="20" rx="5" fill="#ffffff" opacity="0.3" />
        <rect x="-30" y="-100" width="60" height="20" rx="5" fill="#ffffff" opacity="0.3" />
        <rect x="-30" y="-60" width="60" height="20" rx="5" fill="#ffffff" opacity="0.3" />
        <rect x="-30" y="-20" width="60" height="20" rx="5" fill="#ffffff" opacity="0.3" />
        <rect x="-30" y="20" width="60" height="20" rx="5" fill="#ffffff" opacity="0.3" />
        <rect x="-30" y="60" width="60" height="20" rx="5" fill="#ffffff" opacity="0.3" />
        <rect x="-30" y="100" width="60" height="20" rx="5" fill="#ffffff" opacity="0.3" />
        <rect x="-30" y="140" width="60" height="20" rx="5" fill="#ffffff" opacity="0.3" />
      </g>
    </g>
    
    <!-- Rib-like Structures -->
    <g transform="translate(400, 600)">
      <!-- Left Ribs -->
      <path d="M-5,0 C-100,-10 -150,30 -200,30" stroke="#ffffff" stroke-width="5" fill="none" opacity="0.2" />
      <path d="M-5,-30 C-120,-40 -170,0 -220,0" stroke="#ffffff" stroke-width="5" fill="none" opacity="0.2" />
      <path d="M-5,-60 C-130,-70 -180,-30 -230,-30" stroke="#ffffff" stroke-width="5" fill="none" opacity="0.2" />
      <path d="M-5,-90 C-140,-100 -190,-60 -240,-60" stroke="#ffffff" stroke-width="5" fill="none" opacity="0.2" />
      
      <!-- Right Ribs -->
      <path d="M5,0 C100,-10 150,30 200,30" stroke="#ffffff" stroke-width="5" fill="none" opacity="0.2" />
      <path d="M5,-30 C120,-40 170,0 220,0" stroke="#ffffff" stroke-width="5" fill="none" opacity="0.2" />
      <path d="M5,-60 C130,-70 180,-30 230,-30" stroke="#ffffff" stroke-width="5" fill="none" opacity="0.2" />
      <path d="M5,-90 C140,-100 190,-60 240,-60" stroke="#ffffff" stroke-width="5" fill="none" opacity="0.2" />
    </g>
  </g>
  
  <!-- EKG Line Animation -->
  <path d="M100,900 L200,900 L230,800 L260,1000 L290,900 L320,900 L350,900 L380,800 L410,1000 L440,900 L470,900 L500,900 L530,800 L560,1000 L590,900 L700,900" 
        stroke="#ffffff" stroke-width="2" fill="none" opacity="0.6" />
  
  <!-- Grid Pattern -->
  <g stroke="#ffffff" stroke-width="0.5" opacity="0.1">
    <g id="grid-vertical">
      <line x1="100" y1="0" x2="100" y2="1200" />
      <line x1="200" y1="0" x2="200" y2="1200" />
      <line x1="300" y1="0" x2="300" y2="1200" />
      <line x1="400" y1="0" x2="400" y2="1200" />
      <line x1="500" y1="0" x2="500" y2="1200" />
      <line x1="600" y1="0" x2="600" y2="1200" />
      <line x1="700" y1="0" x2="700" y2="1200" />
    </g>
    <g id="grid-horizontal">
      <line x1="0" y1="100" x2="800" y2="100" />
      <line x1="0" y1="200" x2="800" y2="200" />
      <line x1="0" y1="300" x2="800" y2="300" />
      <line x1="0" y1="400" x2="800" y2="400" />
      <line x1="0" y1="500" x2="800" y2="500" />
      <line x1="0" y1="600" x2="800" y2="600" />
      <line x1="0" y1="700" x2="800" y2="700" />
      <line x1="0" y1="800" x2="800" y2="800" />
      <line x1="0" y1="900" x2="800" y2="900" />
      <line x1="0" y1="1000" x2="800" y2="1000" />
      <line x1="0" y1="1100" x2="800" y2="1100" />
    </g>
  </g>
</svg>
