<?xml version="1.0" encoding="UTF-8"?>
<svg xmlns="http://www.w3.org/2000/svg" viewBox="0 0 800 1200" width="800" height="1200">
  <!-- Background Gradient -->
  <defs>
    <linearGradient id="bgGradient" x1="0%" y1="0%" x2="100%" y2="100%">
      <stop offset="0%" stop-color="#8338ec" />
      <stop offset="100%" stop-color="#1a202c" />
    </linearGradient>
    <radialGradient id="glowGradient" cx="50%" cy="30%" r="70%" fx="50%" fy="30%">
      <stop offset="0%" stop-color="#ffffff" stop-opacity="0.1" />
      <stop offset="100%" stop-color="#ffffff" stop-opacity="0" />
    </radialGradient>
  </defs>
  
  <!-- Background -->
  <rect width="800" height="1200" fill="url(#bgGradient)" />
  <ellipse cx="400" cy="300" rx="500" ry="300" fill="url(#glowGradient)" />
  
  <!-- Healthcare Professionals Group (Abstract) -->
  <g transform="translate(400, 600)">
    <!-- Professional 1 (Center) -->
    <circle cx="0" cy="0" r="90" fill="#ffffff" opacity="0.3" />
    <circle cx="0" cy="-40" r="30" fill="#ffffff" opacity="0.5" />
    <rect x="-40" y="10" width="80" height="100" rx="20" fill="#ffffff" opacity="0.3" />
    
    <!-- Professional 2 (Left) -->
    <circle cx="-150" cy="30" r="70" fill="#ffffff" opacity="0.2" />
    <circle cx="-150" cy="-10" r="25" fill="#ffffff" opacity="0.4" />
    <rect x="-180" y="30" width="60" height="80" rx="15" fill="#ffffff" opacity="0.2" />
    
    <!-- Professional 3 (Right) -->
    <circle cx="150" cy="30" r="70" fill="#ffffff" opacity="0.2" />
    <circle cx="150" cy="-10" r="25" fill="#ffffff" opacity="0.4" />
    <rect x="120" y="30" width="60" height="80" rx="15" fill="#ffffff" opacity="0.2" />
    
    <!-- Connection Lines -->
    <line x1="-80" y1="0" x2="-120" y2="10" stroke="#ffffff" stroke-width="3" opacity="0.3" />
    <line x1="80" y1="0" x2="120" y2="10" stroke="#ffffff" stroke-width="3" opacity="0.3" />
    
    <!-- Medical Symbols -->
    <g transform="translate(0, -130) scale(0.6)">
      <rect x="-15" y="-60" width="30" height="120" rx="5" fill="#ffffff" opacity="0.8" />
      <rect x="-60" y="-15" width="120" height="30" rx="5" fill="#ffffff" opacity="0.8" />
    </g>
  </g>
  
  <!-- X-ray Images (Abstract) -->
  <g>
    <!-- X-ray 1 -->
    <g transform="translate(200, 250)">
      <rect x="-70" y="-100" width="140" height="200" rx="10" fill="#ffffff" opacity="0.1" />
      <!-- Chest X-ray like content -->
      <ellipse cx="0" cy="0" rx="50" ry="60" stroke="#ffffff" stroke-width="2" fill="none" opacity="0.6" />
      <ellipse cx="-25" cy="-10" rx="15" ry="25" stroke="#ffffff" stroke-width="2" fill="none" opacity="0.6" />
      <ellipse cx="25" cy="-10" rx="15" ry="25" stroke="#ffffff" stroke-width="2" fill="none" opacity="0.6" />
      <line x1="0" y1="-50" x2="0" y2="50" stroke="#ffffff" stroke-width="2" opacity="0.6" />
    </g>
    
    <!-- X-ray 2 -->
    <g transform="translate(600, 250)">
      <rect x="-70" y="-100" width="140" height="200" rx="10" fill="#ffffff" opacity="0.1" />
      <!-- CT Scan like content -->
      <circle cx="0" cy="0" r="60" stroke="#ffffff" stroke-width="2" fill="none" opacity="0.4" />
      <circle cx="0" cy="0" r="40" stroke="#ffffff" stroke-width="1" fill="none" opacity="0.5" />
      <ellipse cx="0" cy="0" rx="20" ry="25" fill="#ffffff" opacity="0.2" />
    </g>
  </g>
  
  <!-- Digital Medical Devices (Abstract) -->
  <g>
    <!-- Tablet Device -->
    <g transform="translate(400, 250)">
      <rect x="-90" y="-120" width="180" height="240" rx="15" fill="#ffffff" opacity="0.15" />
      <rect x="-80" y="-110" width="160" height="220" rx="5" fill="#8338ec" opacity="0.4" />
      
      <!-- Medical Data Visualization -->
      <line x1="-60" y1="-70" x2="60" y2="-70" stroke="#ffffff" stroke-width="1" opacity="0.5" />
      <line x1="-60" y1="-40" x2="60" y2="-40" stroke="#ffffff" stroke-width="1" opacity="0.5" />
      <line x1="-60" y1="-10" x2="60" y2="-10" stroke="#ffffff" stroke-width="1" opacity="0.5" />
      <line x1="-60" y1="20" x2="60" y2="20" stroke="#ffffff" stroke-width="1" opacity="0.5" />
      <line x1="-60" y1="50" x2="60" y2="50" stroke="#ffffff" stroke-width="1" opacity="0.5" />
      <line x1="-60" y1="80" x2="60" y2="80" stroke="#ffffff" stroke-width="1" opacity="0.5" />
      
      <!-- Data Points -->
      <circle cx="-40" cy="-70" r="4" fill="#ffffff" opacity="0.8" />
      <circle cx="-10" cy="-70" r="4" fill="#ffffff" opacity="0.8" />
      <circle cx="20" cy="-70" r="4" fill="#ffffff" opacity="0.8" />
      <circle cx="50" cy="-70" r="4" fill="#ffffff" opacity="0.8" />
      
      <circle cx="-50" cy="-40" r="4" fill="#ffffff" opacity="0.8" />
      <circle cx="-20" cy="-40" r="4" fill="#ffffff" opacity="0.8" />
      <circle cx="10" cy="-40" r="4" fill="#ffffff" opacity="0.8" />
      <circle cx="40" cy="-40" r="4" fill="#ffffff" opacity="0.8" />
      
      <rect x="-50" y="0" width="30" height="15" rx="3" fill="#ffffff" opacity="0.3" />
      <rect x="0" y="0" width="30" height="15" rx="3" fill="#ffffff" opacity="0.3" />
      <rect x="-50" y="30" width="30" height="15" rx="3" fill="#ffffff" opacity="0.3" />
      <rect x="0" y="30" width="30" height="15" rx="3" fill="#ffffff" opacity="0.3" />
      <rect x="-50" y="60" width="80" height="15" rx="3" fill="#ffffff" opacity="0.3" />
    </g>
  </g>
  
  <!-- Grid Pattern -->
  <g stroke="#ffffff" stroke-width="0.5" opacity="0.07">
    <g id="grid-vertical">
      <line x1="100" y1="0" x2="100" y2="1200" />
      <line x1="200" y1="0" x2="200" y2="1200" />
      <line x1="300" y1="0" x2="300" y2="1200" />
      <line x1="400" y1="0" x2="400" y2="1200" />
      <line x1="500" y1="0" x2="500" y2="1200" />
      <line x1="600" y1="0" x2="600" y2="1200" />
      <line x1="700" y1="0" x2="700" y2="1200" />
    </g>
    <g id="grid-horizontal">
      <line x1="0" y1="100" x2="800" y2="100" />
      <line x1="0" y1="200" x2="800" y2="200" />
      <line x1="0" y1="300" x2="800" y2="300" />
      <line x1="0" y1="400" x2="800" y2="400" />
      <line x1="0" y1="500" x2="800" y2="500" />
      <line x1="0" y1="600" x2="800" y2="600" />
      <line x1="0" y1="700" x2="800" y2="700" />
      <line x1="0" y1="800" x2="800" y2="800" />
      <line x1="0" y1="900" x2="800" y2="900" />
      <line x1="0" y1="1000" x2="800" y2="1000" />
      <line x1="0" y1="1100" x2="800" y2="1100" />
    </g>
  </g>
  
  <!-- Small Dots Pattern -->
  <g fill="#ffffff" opacity="0.2">
    <circle cx="100" cy="150" r="2" />
    <circle cx="150" cy="100" r="2" />
    <circle cx="200" cy="200" r="2" />
    <circle cx="250" cy="300" r="2" />
    <circle cx="300" cy="150" r="2" />
    <circle cx="350" cy="200" r="2" />
    <circle cx="400" cy="100" r="2" />
    <circle cx="450" cy="150" r="2" />
    <circle cx="500" cy="250" r="2" />
    <circle cx="550" cy="300" r="2" />
    <circle cx="600" cy="100" r="2" />
    <circle cx="650" cy="200" r="2" />
    <circle cx="700" cy="150" r="2" />
    
    <circle cx="120" cy="900" r="2" />
    <circle cx="170" cy="950" r="2" />
    <circle cx="220" cy="850" r="2" />
    <circle cx="270" cy="900" r="2" />
    <circle cx="320" cy="950" r="2" />
    <circle cx="370" cy="850" r="2" />
    <circle cx="420" cy="900" r="2" />
    <circle cx="470" cy="950" r="2" />
    <circle cx="520" cy="850" r="2" />
    <circle cx="570" cy="900" r="2" />
    <circle cx="620" cy="950" r="2" />
    <circle cx="670" cy="850" r="2" />
    <circle cx="720" cy="900" r="2" />
  </g>
</svg>
